<svg width="55" height="55" viewBox="0 0 55 55" fill="none" xmlns="http://www.w3.org/2000/svg">
<path d="M25.2083 2.29167C25.2083 1.02601 26.2343 0 27.5 0C28.7657 0 29.7917 1.02601 29.7917 2.29167V6.875C29.7917 8.14064 28.7657 9.16667 27.5 9.16667C26.2343 9.16667 25.2083 8.14064 25.2083 6.875V2.29167Z" fill="#0F0F0F"/>
<path fill-rule="evenodd" clip-rule="evenodd" d="M41.25 27.5C41.25 35.0939 35.0939 41.25 27.5 41.25C19.9061 41.25 13.75 35.0939 13.75 27.5C13.75 19.9061 19.9061 13.75 27.5 13.75C35.0939 13.75 41.25 19.9061 41.25 27.5ZM18.4747 27.5C18.4747 32.4846 22.5154 36.5253 27.5 36.5253C32.4846 36.5253 36.5253 32.4846 36.5253 27.5C36.5253 22.5154 32.4846 18.4747 27.5 18.4747C22.5154 18.4747 18.4747 22.5154 18.4747 27.5Z" fill="#0F0F0F"/>
<path d="M46.9455 8.05457C46.0504 7.1596 44.5995 7.1596 43.7046 8.05457L40.4635 11.2955C39.5686 12.1904 39.5686 13.6414 40.4635 14.5364C41.3586 15.4313 42.8095 15.4313 43.7046 14.5364L46.9455 11.2955C47.8404 10.4005 47.8404 8.94951 46.9455 8.05457Z" fill="#0F0F0F"/>
<path d="M2.29167 29.7917C1.02601 29.7917 0 28.7657 0 27.5C0 26.2343 1.02601 25.2083 2.29167 25.2083H6.875C8.14064 25.2083 9.16667 26.2343 9.16667 27.5C9.16667 28.7657 8.14064 29.7917 6.875 29.7917H2.29167Z" fill="#0F0F0F"/>
<path d="M8.05457 8.05457C7.15963 8.94951 7.15963 10.4005 8.05457 11.2955L11.2955 14.5364C12.1904 15.4313 13.6414 15.4313 14.5364 14.5364C15.4314 13.6414 15.4314 12.1904 14.5364 11.2955L11.2955 8.05457C10.4005 7.1596 8.94953 7.1596 8.05457 8.05457Z" fill="#0F0F0F"/>
<path d="M25.2083 48.125C25.2083 46.8593 26.2343 45.8333 27.5 45.8333C28.7657 45.8333 29.7917 46.8593 29.7917 48.125V52.7083C29.7917 53.974 28.7657 55 27.5 55C26.2343 55 25.2083 53.974 25.2083 52.7083V48.125Z" fill="#0F0F0F"/>
<path d="M14.5364 40.4637C13.6414 39.5686 12.1904 39.5686 11.2955 40.4637L8.05459 43.7046C7.15963 44.5995 7.15963 46.0506 8.05459 46.9455C8.94953 47.8404 10.4005 47.8404 11.2955 46.9455L14.5364 43.7046C15.4314 42.8095 15.4314 41.3586 14.5364 40.4637Z" fill="#0F0F0F"/>
<path d="M48.125 29.7917C46.8593 29.7917 45.8333 28.7657 45.8333 27.5C45.8333 26.2343 46.8593 25.2083 48.125 25.2083H52.7083C53.974 25.2083 55 26.2343 55 27.5C55 28.7657 53.974 29.7917 52.7083 29.7917H48.125Z" fill="#0F0F0F"/>
<path d="M40.4635 40.4637C39.5686 41.3586 39.5686 42.8095 40.4635 43.7046L43.7046 46.9455C44.5995 47.8404 46.0504 47.8404 46.9455 46.9455C47.8404 46.0506 47.8404 44.5995 46.9455 43.7046L43.7046 40.4637C42.8095 39.5686 41.3586 39.5686 40.4635 40.4637Z" fill="#0F0F0F"/>
</svg>
