<svg width="70" height="50" viewBox="0 0 70 50" fill="none" xmlns="http://www.w3.org/2000/svg">
<mask id="mask0_11_20" style="mask-type:luminance" maskUnits="userSpaceOnUse" x="0" y="0" width="70" height="50">
<path d="M65 0H5C2.23858 0 0 2.23858 0 5V45C0 47.7614 2.23858 50 5 50H65C67.7614 50 70 47.7614 70 45V5C70 2.23858 67.7614 0 65 0Z" fill="white"/>
</mask>
<g mask="url(#mask0_11_20)">
<path d="M65 0H5C2.23858 0 0 2.23858 0 5V45C0 47.7614 2.23858 50 5 50H65C67.7614 50 70 47.7614 70 45V5C70 2.23858 67.7614 0 65 0Z" fill="white"/>
<mask id="mask1_11_20" style="mask-type:alpha" maskUnits="userSpaceOnUse" x="0" y="0" width="70" height="50">
<path d="M65 0H5C2.23858 0 0 2.23858 0 5V45C0 47.7614 2.23858 50 5 50H65C67.7614 50 70 47.7614 70 45V5C70 2.23858 67.7614 0 65 0Z" fill="white"/>
</mask>
<g mask="url(#mask1_11_20)">
<path fill-rule="evenodd" clip-rule="evenodd" d="M70 0H0V3.33333H70V0ZM70 6.66668H0V10H70V6.66668ZM0 13.3333H70V16.6667H0V13.3333ZM70 20H0V23.3333H70V20ZM0 26.6668H70V30H0V26.6668ZM70 33.3332H0V36.6668H70V33.3332ZM0 40H70V43.3332H0V40ZM70 46.6668H0V50H70V46.6668Z" fill="#D02F44"/>
<path d="M30 0H0V23.3333H30V0Z" fill="#46467F"/>
<g filter="url(#filter0_d_11_20)">
<path fill-rule="evenodd" clip-rule="evenodd" d="M6.6666 4.99998C6.6666 5.92045 5.9204 6.66665 4.99993 6.66665C4.07945 6.66665 3.33325 5.92045 3.33325 4.99998C3.33325 4.07953 4.07945 3.33333 4.99993 3.33333C5.9204 3.33333 6.6666 4.07953 6.6666 4.99998ZM13.3333 4.99998C13.3333 5.92045 12.5871 6.66665 11.6666 6.66665C10.7461 6.66665 9.99993 5.92045 9.99993 4.99998C9.99993 4.07953 10.7461 3.33333 11.6666 3.33333C12.5871 3.33333 13.3333 4.07953 13.3333 4.99998ZM18.3333 6.66665C19.2537 6.66665 19.9999 5.92045 19.9999 4.99998C19.9999 4.07953 19.2537 3.33333 18.3333 3.33333C17.4128 3.33333 16.6666 4.07953 16.6666 4.99998C16.6666 5.92045 17.4128 6.66665 18.3333 6.66665ZM26.6665 4.99998C26.6665 5.92045 25.9205 6.66665 24.9999 6.66665C24.0795 6.66665 23.3333 5.92045 23.3333 4.99998C23.3333 4.07953 24.0795 3.33333 24.9999 3.33333C25.9205 3.33333 26.6665 4.07953 26.6665 4.99998ZM8.33325 9.99998C9.25373 9.99998 9.99993 9.2538 9.99993 8.33333C9.99993 7.41285 9.25373 6.66665 8.33325 6.66665C7.41278 6.66665 6.6666 7.41285 6.6666 8.33333C6.6666 9.2538 7.41278 9.99998 8.33325 9.99998ZM16.6666 8.33333C16.6666 9.2538 15.9204 9.99998 14.9999 9.99998C14.0795 9.99998 13.3333 9.2538 13.3333 8.33333C13.3333 7.41285 14.0795 6.66665 14.9999 6.66665C15.9204 6.66665 16.6666 7.41285 16.6666 8.33333ZM21.6666 9.99998C22.5871 9.99998 23.3333 9.2538 23.3333 8.33333C23.3333 7.41285 22.5871 6.66665 21.6666 6.66665C20.7461 6.66665 19.9999 7.41285 19.9999 8.33333C19.9999 9.2538 20.7461 9.99998 21.6666 9.99998ZM26.6665 11.6667C26.6665 12.5871 25.9205 13.3333 24.9999 13.3333C24.0795 13.3333 23.3333 12.5871 23.3333 11.6667C23.3333 10.7462 24.0795 9.99998 24.9999 9.99998C25.9205 9.99998 26.6665 10.7462 26.6665 11.6667ZM18.3333 13.3333C19.2537 13.3333 19.9999 12.5871 19.9999 11.6667C19.9999 10.7462 19.2537 9.99998 18.3333 9.99998C17.4128 9.99998 16.6666 10.7462 16.6666 11.6667C16.6666 12.5871 17.4128 13.3333 18.3333 13.3333ZM13.3333 11.6667C13.3333 12.5871 12.5871 13.3333 11.6666 13.3333C10.7461 13.3333 9.99993 12.5871 9.99993 11.6667C9.99993 10.7462 10.7461 9.99998 11.6666 9.99998C12.5871 9.99998 13.3333 10.7462 13.3333 11.6667ZM4.99993 13.3333C5.9204 13.3333 6.6666 12.5871 6.6666 11.6667C6.6666 10.7462 5.9204 9.99998 4.99993 9.99998C4.07945 9.99998 3.33325 10.7462 3.33325 11.6667C3.33325 12.5871 4.07945 13.3333 4.99993 13.3333ZM9.99993 15C9.99993 15.9205 9.25373 16.6666 8.33325 16.6666C7.41278 16.6666 6.6666 15.9205 6.6666 15C6.6666 14.0795 7.41278 13.3333 8.33325 13.3333C9.25373 13.3333 9.99993 14.0795 9.99993 15ZM14.9999 16.6666C15.9204 16.6666 16.6666 15.9205 16.6666 15C16.6666 14.0795 15.9204 13.3333 14.9999 13.3333C14.0795 13.3333 13.3333 14.0795 13.3333 15C13.3333 15.9205 14.0795 16.6666 14.9999 16.6666ZM23.3333 15C23.3333 15.9205 22.5871 16.6666 21.6666 16.6666C20.7461 16.6666 19.9999 15.9205 19.9999 15C19.9999 14.0795 20.7461 13.3333 21.6666 13.3333C22.5871 13.3333 23.3333 14.0795 23.3333 15ZM24.9999 20C25.9205 20 26.6665 19.2538 26.6665 18.3333C26.6665 17.4129 25.9205 16.6666 24.9999 16.6666C24.0795 16.6666 23.3333 17.4129 23.3333 18.3333C23.3333 19.2538 24.0795 20 24.9999 20ZM19.9999 18.3333C19.9999 19.2538 19.2537 20 18.3333 20C17.4128 20 16.6666 19.2538 16.6666 18.3333C16.6666 17.4129 17.4128 16.6666 18.3333 16.6666C19.2537 16.6666 19.9999 17.4129 19.9999 18.3333ZM11.6666 20C12.5871 20 13.3333 19.2538 13.3333 18.3333C13.3333 17.4129 12.5871 16.6666 11.6666 16.6666C10.7461 16.6666 9.99993 17.4129 9.99993 18.3333C9.99993 19.2538 10.7461 20 11.6666 20ZM6.6666 18.3333C6.6666 19.2538 5.9204 20 4.99993 20C4.07945 20 3.33325 19.2538 3.33325 18.3333C3.33325 17.4129 4.07945 16.6666 4.99993 16.6666C5.9204 16.6666 6.6666 17.4129 6.6666 18.3333Z" fill="url(#paint0_linear_11_20)"/>
</g>
</g>
</g>
<defs>
<filter id="filter0_d_11_20" x="3.33325" y="3.33333" width="23.3333" height="17.6667" filterUnits="userSpaceOnUse" color-interpolation-filters="sRGB">
<feFlood flood-opacity="0" result="BackgroundImageFix"/>
<feColorMatrix in="SourceAlpha" type="matrix" values="0 0 0 0 0 0 0 0 0 0 0 0 0 0 0 0 0 0 127 0" result="hardAlpha"/>
<feOffset dy="1"/>
<feColorMatrix type="matrix" values="0 0 0 0 0 0 0 0 0 0 0 0 0 0 0 0 0 0 0.06 0"/>
<feBlend mode="normal" in2="BackgroundImageFix" result="effect1_dropShadow_11_20"/>
<feBlend mode="normal" in="SourceGraphic" in2="effect1_dropShadow_11_20" result="shape"/>
</filter>
<linearGradient id="paint0_linear_11_20" x1="3.33325" y1="3.33333" x2="3.33325" y2="20" gradientUnits="userSpaceOnUse">
<stop stop-color="white"/>
<stop offset="1" stop-color="#F0F0F0"/>
</linearGradient>
</defs>
</svg>
