<?xml version="1.0" encoding="utf-8"?><!-- Uploaded to: SVG Repo, www.svgrepo.com, Generator: SVG Repo Mixer Tools -->
<svg fill="#000000" width="800px" height="800px" viewBox="0 0 24 24" id="cctv-top" data-name="Flat Color" xmlns="http://www.w3.org/2000/svg" class="icon flat-color"><path id="primary" d="M5,16H19a1,1,0,0,0,1-1V12A8,8,0,0,0,4,12v3A1,1,0,0,0,5,16Z" style="fill: rgb(0, 0, 0);"></path><path id="secondary" d="M2,19V17a2,2,0,0,1,2-2H20a2,2,0,0,1,2,2v2a1,1,0,0,1-1,1H3A1,1,0,0,1,2,19Zm10-8.5A1.5,1.5,0,1,0,10.5,9,1.5,1.5,0,0,0,12,10.5Z" style="fill: rgb(44, 169, 188);"></path></svg>