<svg width="36" height="36" viewBox="0 0 36 36" fill="none" xmlns="http://www.w3.org/2000/svg">
<path d="M33.2253 35.5404C33.5341 35.8386 33.9477 36.0037 34.3769 35.9999C34.8062 35.9962 35.2169 35.824 35.5205 35.5205C35.824 35.2169 35.9962 34.8062 35.9999 34.3769C36.0037 33.9477 35.8386 33.5341 35.5404 33.2253L33.2253 35.5404ZM26.1964 14.7355C26.1964 17.7751 24.989 20.6903 22.8396 22.8396C20.6903 24.989 17.7751 26.1964 14.7355 26.1964V29.471C18.6436 29.471 22.3916 27.9185 25.1551 25.1551C27.9185 22.3916 29.471 18.6436 29.471 14.7355H26.1964ZM14.7355 26.1964C11.6959 26.1964 8.78073 24.989 6.63139 22.8396C4.48205 20.6903 3.27456 17.7751 3.27456 14.7355H0C0 18.6436 1.55249 22.3916 4.31593 25.1551C7.07937 27.9185 10.8274 29.471 14.7355 29.471V26.1964ZM3.27456 14.7355C3.27456 11.6959 4.48205 8.78073 6.63139 6.63139C8.78073 4.48205 11.6959 3.27456 14.7355 3.27456V0C10.8274 0 7.07937 1.55249 4.31593 4.31593C1.55249 7.07937 0 10.8274 0 14.7355H3.27456ZM14.7355 3.27456C17.7751 3.27456 20.6903 4.48205 22.8396 6.63139C24.989 8.78073 26.1964 11.6959 26.1964 14.7355H29.471C29.471 10.8274 27.9185 7.07937 25.1551 4.31593C22.3916 1.55249 18.6436 0 14.7355 0V3.27456ZM22.583 24.8981L33.2253 35.5404L35.5404 33.2253L24.8981 22.583L22.583 24.8981Z" fill="black"/>
</svg>
